<?xml version="1.0" encoding="UTF-8" standalone="no" ?>
<!DOCTYPE svg PUBLIC "-//W3C//DTD SVG 1.1//EN" "http://www.w3.org/Graphics/SVG/1.1/DTD/svg11.dtd">
<svg xmlns="http://www.w3.org/2000/svg" xmlns:xlink="http://www.w3.org/1999/xlink" version="1.1" width="1280" height="1024" viewBox="0 0 1280 1024" xml:space="preserve">
<desc>Created with Fabric.js 5.3.0</desc>
<defs>
</defs>
<g transform="matrix(1 0 0 1 640 512)" id="background-logo"  >
<rect style="stroke: none; stroke-width: 0; stroke-dasharray: none; stroke-linecap: butt; stroke-dashoffset: 0; stroke-linejoin: miter; stroke-miterlimit: 4; fill: rgb(44,76,84); fill-rule: nonzero; opacity: 1;"  paint-order="stroke"  x="-640" y="-512" rx="0" ry="0" width="1280" height="1024" />
</g>
<g transform="matrix(-2.621869189276325 0 0 2.621869189276325 640.3360106554734 403.08079028901295)" id="logo-logo"  >
<g style=""  paint-order="stroke"   >
		<g transform="matrix(0.9223177124345568 0 0 0.9223177124345568 -58.36426484285869 0)"  >
<path style="stroke: none; stroke-width: 1; stroke-dasharray: none; stroke-linecap: butt; stroke-dashoffset: 0; stroke-linejoin: miter; stroke-miterlimit: 4; fill: rgb(145,165,172); fill-rule: nonzero; opacity: 1;"  paint-order="stroke"  transform=" translate(-186.71999999999997, -249.99999999999997)" d="M 150.26 311.65 C 116.26999999999998 311.65 88.60999999999999 283.98999999999995 88.60999999999999 249.99999999999997 C 88.60999999999999 216.01 116.25999999999999 188.34999999999997 150.26 188.34999999999997 C 182.88 188.34999999999997 275.45 244.30999999999997 279.38 246.68999999999997 L 284.83 249.99999999999997 L 279.38 253.30999999999997 C 275.46 255.69 182.88 311.65 150.26 311.65 z M 150.26 196.09 C 120.52999999999999 196.09 96.35 220.27 96.35 250 C 96.35 279.73 120.53 303.90999999999997 150.26 303.90999999999997 C 176.39999999999998 303.90999999999997 249.1 262.2 269.8 249.99999999999997 C 249.11 237.8 176.41 196.09 150.26 196.09 z" stroke-linecap="round" />
</g>
		<g transform="matrix(0.9223177124345568 0 0 0.9223177124345568 58.364264842858745 0)"  >
<path style="stroke: none; stroke-width: 1; stroke-dasharray: none; stroke-linecap: butt; stroke-dashoffset: 0; stroke-linejoin: miter; stroke-miterlimit: 4; fill: rgb(145,165,172); fill-rule: nonzero; opacity: 1;"  paint-order="stroke"  transform=" translate(-313.28, -249.99999999999997)" d="M 349.74 311.65 C 317.12 311.65 224.55 255.68999999999997 220.62 253.30999999999997 L 215.17000000000002 249.99999999999997 L 220.62 246.68999999999997 C 224.55 244.30999999999997 317.12 188.34999999999997 349.74 188.34999999999997 C 383.73 188.34999999999997 411.39 215.99999999999997 411.39 249.99999999999997 C 411.39 284 383.73 311.65 349.74 311.65 z M 230.19 250 C 250.89 262.2 323.59000000000003 303.90999999999997 349.74 303.90999999999997 C 379.46000000000004 303.90999999999997 403.65 279.72999999999996 403.65 249.99999999999997 C 403.65 220.27999999999997 379.46999999999997 196.08999999999997 349.74 196.08999999999997 C 323.59 196.09 250.89 237.8 230.19 250 z" stroke-linecap="round" />
</g>
		<g transform="matrix(0.9223177124345568 0 0 0.9223177124345568 -55.025474723845605 0)"  >
<path style="stroke: none; stroke-width: 1; stroke-dasharray: none; stroke-linecap: butt; stroke-dashoffset: 0; stroke-linejoin: miter; stroke-miterlimit: 4; fill: rgb(130,152,160); fill-rule: nonzero; opacity: 1;"  paint-order="stroke"  transform=" translate(-190.33999999999997, -250)" d="M 156.03 307.99 C 124.05 307.99 98.03999999999999 281.98 98.03999999999999 250 C 98.03999999999999 218.01999999999998 124.05 192.01 156.03 192.01 C 186.73 192.01 273.93 244.72 277.63 246.95999999999998 L 282.64 249.99999999999997 L 277.63 253.03999999999996 C 273.94 255.28 186.74 307.99 156.03 307.99 z M 156.03 199.12 C 127.97 199.12 105.15 221.95 105.15 250 C 105.15 278.06 127.98 300.88 156.03 300.88 C 180.74 300.88 249.51999999999998 261.39 268.84000000000003 250 C 249.52 238.61 180.74 199.12 156.03 199.12 z" stroke-linecap="round" />
</g>
		<g transform="matrix(0.9223177124345568 0 0 0.9223177124345568 55.025474723845775 8.526513e-14)"  >
<path style="stroke: none; stroke-width: 1; stroke-dasharray: none; stroke-linecap: butt; stroke-dashoffset: 0; stroke-linejoin: miter; stroke-miterlimit: 4; fill: rgb(130,152,160); fill-rule: nonzero; opacity: 1;"  paint-order="stroke"  transform=" translate(-309.66, -250.00000000000003)" d="M 343.97 307.99 C 313.26000000000005 307.99 226.07000000000002 255.28 222.37000000000003 253.04000000000002 L 217.36000000000004 250.00000000000003 L 222.37000000000003 246.96000000000004 C 226.07000000000002 244.72000000000003 313.27000000000004 192.01000000000005 343.97 192.01000000000005 C 375.95000000000005 192.01000000000005 401.96000000000004 218.02000000000004 401.96000000000004 250.00000000000006 C 401.96000000000004 281.9800000000001 375.94 307.99 343.97 307.99 z M 231.16 250 C 250.48 261.39 319.26 300.88 343.97 300.88 C 372.03000000000003 300.88 394.85 278.05 394.85 250 C 394.85 221.94 372.02000000000004 199.12 343.97 199.12 C 319.26 199.12 250.48 238.61 231.16 250 z" stroke-linecap="round" />
</g>
		<g transform="matrix(0.9223177124345568 0 0 0.9223177124345568 -51.68668460483252 0)"  >
<path style="stroke: none; stroke-width: 1; stroke-dasharray: none; stroke-linecap: butt; stroke-dashoffset: 0; stroke-linejoin: miter; stroke-miterlimit: 4; fill: rgb(115,140,147); fill-rule: nonzero; opacity: 1;"  paint-order="stroke"  transform=" translate(-193.95999999999998, -250)" d="M 161.8 304.33 C 131.84 304.33 107.47000000000001 279.96 107.47000000000001 250 C 107.47000000000001 220.04000000000002 131.84 195.67000000000002 161.8 195.67000000000002 C 190.59 195.67000000000002 272.42 245.13000000000002 275.89 247.23000000000002 L 280.45 250.00000000000003 L 275.89 252.77000000000004 C 272.42 254.87 190.59 304.33 161.8 304.33 z M 161.8 202.14 C 135.41000000000003 202.14 113.94000000000001 223.60999999999999 113.94000000000001 250 C 113.94000000000001 276.39 135.41000000000003 297.86 161.8 297.86 C 185.08 297.86 249.93 260.59000000000003 267.88 250 C 249.93 239.42 185.08 202.14 161.8 202.14 z" stroke-linecap="round" />
</g>
		<g transform="matrix(0.9223177124345568 0 0 0.9223177124345568 51.68668460483258 0)"  >
<path style="stroke: none; stroke-width: 1; stroke-dasharray: none; stroke-linecap: butt; stroke-dashoffset: 0; stroke-linejoin: miter; stroke-miterlimit: 4; fill: rgb(115,140,147); fill-rule: nonzero; opacity: 1;"  paint-order="stroke"  transform=" translate(-306.03999999999996, -249.99999999999997)" d="M 338.2 304.33 C 309.40999999999997 304.33 227.57999999999998 254.86999999999998 224.10999999999999 252.76999999999998 L 219.54999999999998 249.99999999999997 L 224.10999999999999 247.22999999999996 C 227.57999999999998 245.11999999999995 309.4 195.66999999999996 338.2 195.66999999999996 C 368.15999999999997 195.66999999999996 392.53 220.03999999999996 392.53 249.99999999999994 C 392.53 279.96 368.16 304.33 338.2 304.33 z M 232.12 250 C 250.07 260.58 314.92 297.86 338.2 297.86 C 364.59 297.86 386.06 276.39 386.06 250 C 386.06 223.61 364.59000000000003 202.14 338.2 202.14 C 314.92 202.14 250.07 239.42 232.12 250 z" stroke-linecap="round" />
</g>
		<g transform="matrix(0.9223177124345568 0 0 0.9223177124345568 -48.347894485819324 0)"  >
<path style="stroke: none; stroke-width: 1; stroke-dasharray: none; stroke-linecap: butt; stroke-dashoffset: 0; stroke-linejoin: miter; stroke-miterlimit: 4; fill: rgb(100,127,135); fill-rule: nonzero; opacity: 1;"  paint-order="stroke"  transform=" translate(-197.57999999999998, -250)" d="M 167.57 300.67 C 139.63 300.67 116.89999999999999 277.94 116.89999999999999 250 C 116.89999999999999 222.06 139.63 199.32999999999998 167.57 199.32999999999998 C 194.45 199.32999999999998 270.9 245.54 274.14 247.5 L 278.26 250 L 274.14 252.5 C 270.9 254.46 194.45 300.67 167.57 300.67 z M 167.57 205.17 C 142.85 205.17 122.74 225.27999999999997 122.74 250 C 122.74 274.72 142.85 294.83 167.57 294.83 C 189.42 294.83 250.36 259.77 266.91999999999996 250 C 250.35 240.23 189.42 205.17 167.57 205.17 z" stroke-linecap="round" />
</g>
		<g transform="matrix(0.9223177124345568 0 0 0.9223177124345568 48.34789448581961 -0.004611588562113411)"  >
<path style="stroke: none; stroke-width: 1; stroke-dasharray: none; stroke-linecap: butt; stroke-dashoffset: 0; stroke-linejoin: miter; stroke-miterlimit: 4; fill: rgb(100,127,135); fill-rule: nonzero; opacity: 1;"  paint-order="stroke"  transform=" translate(-302.42, -249.995)" d="M 332.43 300.67 C 305.55 300.67 229.10000000000002 254.46 225.86 252.49 L 221.74 249.99 L 225.86 247.49 C 229.10000000000002 245.52 305.55 199.32 332.43 199.32 C 360.37 199.32 383.1 222.04999999999998 383.1 249.99 C 383.1 277.94 360.37 300.67 332.43 300.67 z M 233.08 250 C 249.64000000000001 259.77 310.58000000000004 294.83 332.43 294.83 C 357.15 294.83 377.26 274.71999999999997 377.26 250 C 377.26 225.28000000000003 357.15 205.17000000000002 332.43 205.17000000000002 C 310.58 205.17 249.65 240.23 233.08 250 z" stroke-linecap="round" />
</g>
		<g transform="matrix(0.9223177124345568 0 0 0.9223177124345568 -45.01832754393064 0)"  >
<path style="stroke: none; stroke-width: 1; stroke-dasharray: none; stroke-linecap: butt; stroke-dashoffset: 0; stroke-linejoin: miter; stroke-miterlimit: 4; fill: rgb(85,115,122); fill-rule: nonzero; opacity: 1;"  paint-order="stroke"  transform=" translate(-201.19, -249.99999999999997)" d="M 173.34 297.02 C 147.41 297.02 126.32 275.93 126.32 249.99999999999997 C 126.32 224.06999999999994 147.41 202.97999999999996 173.34 202.97999999999996 C 198.31 202.97999999999996 269.38 245.93999999999997 272.39 247.76999999999995 L 276.06 249.99999999999994 L 272.39 252.22999999999993 C 269.38 254.06 198.31 297.02 173.34 297.02 z M 173.34 208.2 C 150.29 208.2 131.54000000000002 226.95 131.54000000000002 250 C 131.54000000000002 273.05 150.29000000000002 291.8 173.34000000000003 291.8 C 193.76000000000005 291.8 250.79000000000002 258.95 265.95000000000005 250 C 250.79 241.05 193.76 208.2 173.34 208.2 z" stroke-linecap="round" />
</g>
		<g transform="matrix(0.9223177124345568 0 0 0.9223177124345568 45.018327543930866 0)"  >
<path style="stroke: none; stroke-width: 1; stroke-dasharray: none; stroke-linecap: butt; stroke-dashoffset: 0; stroke-linejoin: miter; stroke-miterlimit: 4; fill: rgb(85,115,122); fill-rule: nonzero; opacity: 1;"  paint-order="stroke"  transform=" translate(-298.81, -250)" d="M 326.66 297.02 C 301.69000000000005 297.02 230.62 254.05999999999997 227.61 252.23 L 223.94000000000003 250 L 227.61 247.77 C 230.62 245.94 301.70000000000005 202.98000000000002 326.66 202.98000000000002 C 352.59000000000003 202.98000000000002 373.68 224.07000000000002 373.68 250.00000000000003 C 373.68 275.93000000000006 352.59 297.02 326.66 297.02 z M 234.05 250 C 249.21 258.95 306.24 291.8 326.66 291.8 C 349.71000000000004 291.8 368.46000000000004 273.05 368.46000000000004 250 C 368.46000000000004 226.95 349.71000000000004 208.2 326.66 208.2 C 306.24 208.2 249.21 241.05 234.05 250 z" stroke-linecap="round" />
</g>
		<g transform="matrix(0.9223177124345568 0 0 0.9223177124345568 -41.67492583635527 0)"  >
<path style="stroke: none; stroke-width: 1; stroke-dasharray: none; stroke-linecap: butt; stroke-dashoffset: 0; stroke-linejoin: miter; stroke-miterlimit: 4; fill: rgb(70,102,110); fill-rule: nonzero; opacity: 1;"  paint-order="stroke"  transform=" translate(-204.81500000000003, -250)" d="M 179.11 293.36 C 155.20000000000002 293.36 135.75 273.91 135.75 250 C 135.75 226.08999999999997 155.2 206.64 179.11 206.64 C 202.17000000000002 206.64 267.86 246.35 270.65000000000003 248.04 L 273.88000000000005 250 L 270.65000000000003 251.96 C 267.86 253.65 202.16 293.36 179.11 293.36 z M 179.11 211.22 C 157.73000000000002 211.22 140.33 228.62 140.33 250 C 140.33 271.38 157.73000000000002 288.78 179.11 288.78 C 198.10000000000002 288.78 251.23000000000002 258.14 264.99 249.99999999999997 C 251.22 241.87 198.1 211.22 179.11 211.22 z" stroke-linecap="round" />
</g>
		<g transform="matrix(0.9223177124345568 0 0 0.9223177124345568 41.67492583635561 0)"  >
<path style="stroke: none; stroke-width: 1; stroke-dasharray: none; stroke-linecap: butt; stroke-dashoffset: 0; stroke-linejoin: miter; stroke-miterlimit: 4; fill: rgb(70,102,110); fill-rule: nonzero; opacity: 1;"  paint-order="stroke"  transform=" translate(-295.185, -250)" d="M 320.89 293.36 C 297.83 293.36 232.14 253.65 229.34999999999997 251.96 L 226.11999999999998 250 L 229.34999999999997 248.04 C 232.13999999999996 246.35 297.83 206.64 320.89 206.64 C 344.8 206.64 364.25 226.08999999999997 364.25 250 C 364.25 273.91 344.8 293.36 320.89 293.36 z M 235.01 250 C 248.76999999999998 258.13 301.9 288.78 320.89 288.78 C 342.27 288.78 359.66999999999996 271.38 359.66999999999996 249.99999999999997 C 359.66999999999996 228.61999999999995 342.27 211.21999999999997 320.89 211.21999999999997 C 301.9 211.22 248.78 241.87 235.01 250 z" stroke-linecap="round" />
</g>
		<g transform="matrix(0.9223177124345568 0 0 0.9223177124345568 -38.34074730590436 0)"  >
<path style="stroke: none; stroke-width: 1; stroke-dasharray: none; stroke-linecap: butt; stroke-dashoffset: 0; stroke-linejoin: miter; stroke-miterlimit: 4; fill: rgb(55,90,97); fill-rule: nonzero; opacity: 1;"  paint-order="stroke"  transform=" translate(-208.42999999999998, -250)" d="M 184.88 289.7 C 162.99 289.7 145.18 271.89 145.18 250 C 145.18 228.11 162.99 210.3 184.88 210.3 C 206.03 210.3 266.35 246.76000000000002 268.9 248.31 L 271.67999999999995 250 L 268.9 251.69 C 266.34 253.24 206.02 289.7 184.88 289.7 z M 184.88 214.25 C 165.17 214.25 149.13 230.29 149.13 250 C 149.13 269.71000000000004 165.17 285.75 184.88 285.75 C 202.45 285.75 251.68 257.3 264.03 250 C 251.68 242.7 202.44 214.25 184.88 214.25 z" stroke-linecap="round" />
</g>
		<g transform="matrix(0.9223177124345568 0 0 0.9223177124345568 38.3407473059047 0)"  >
<path style="stroke: none; stroke-width: 1; stroke-dasharray: none; stroke-linecap: butt; stroke-dashoffset: 0; stroke-linejoin: miter; stroke-miterlimit: 4; fill: rgb(55,90,97); fill-rule: nonzero; opacity: 1;"  paint-order="stroke"  transform=" translate(-291.57, -250)" d="M 315.12 289.7 C 293.98 289.7 233.65 253.23999999999998 231.10000000000002 251.69 L 228.32000000000002 250 L 231.10000000000002 248.31 C 233.66000000000003 246.76 293.98 210.3 315.12 210.3 C 337.01 210.3 354.82 228.11 354.82 250 C 354.82 271.89 337.02 289.7 315.12 289.7 z M 235.98 250 C 248.32 257.3 297.56 285.75 315.13 285.75 C 334.84 285.75 350.88 269.71 350.88 250 C 350.88 230.29000000000002 334.84 214.25 315.13 214.25 C 297.56 214.25 248.32 242.7 235.98 250 z" stroke-linecap="round" />
</g>
		<g transform="matrix(0.9223177124345568 0 0 0.9223177124345568 -35.0065687754535 8.526513e-14)"  >
<path style="stroke: none; stroke-width: 1; stroke-dasharray: none; stroke-linecap: butt; stroke-dashoffset: 0; stroke-linejoin: miter; stroke-miterlimit: 4; fill: rgb(40,77,85); fill-rule: nonzero; opacity: 1;"  paint-order="stroke"  transform=" translate(-212.04499999999996, -250.00000000000003)" d="M 190.64 286.04 C 170.76999999999998 286.04 154.6 269.87 154.6 250.00000000000003 C 154.6 230.13000000000005 170.76999999999998 213.96000000000004 190.64 213.96000000000004 C 209.86999999999998 213.96000000000004 264.82 247.17000000000004 267.15 248.59000000000003 L 269.48999999999995 250.01000000000002 L 267.15 251.43 C 264.82 252.83 209.88 286.04 190.64 286.04 z M 190.64 217.27 C 172.58999999999997 217.27 157.91 231.95000000000002 157.91 250 C 157.91 268.04999999999995 172.59 282.73 190.64 282.73 C 206.77999999999997 282.73 252.14 256.46000000000004 263.04999999999995 250.00000000000003 C 252.15 243.54 206.79 217.27 190.64 217.27 z" stroke-linecap="round" />
</g>
		<g transform="matrix(0.9223177124345568 0 0 0.9223177124345568 35.006568775453786 -0.009223177124312087)"  >
<path style="stroke: none; stroke-width: 1; stroke-dasharray: none; stroke-linecap: butt; stroke-dashoffset: 0; stroke-linejoin: miter; stroke-miterlimit: 4; fill: rgb(40,77,85); fill-rule: nonzero; opacity: 1;"  paint-order="stroke"  transform=" translate(-287.95500000000004, -249.99000000000004)" d="M 309.36 286.04 C 290.13 286.04 235.18 252.83 232.85000000000002 251.41000000000003 L 230.51000000000002 249.99000000000004 L 232.85000000000002 248.57000000000005 C 235.18000000000004 247.16000000000005 290.12 213.94000000000005 309.36 213.94000000000005 C 329.23 213.94000000000005 345.40000000000003 230.11000000000007 345.40000000000003 249.98000000000005 C 345.40000000000003 269.85 329.23 286.04 309.36 286.04 z M 236.94 250 C 247.85 256.46 293.21 282.73 309.35 282.73 C 327.40000000000003 282.73 342.08000000000004 268.05 342.08000000000004 250.00000000000003 C 342.08000000000004 231.95000000000005 327.40000000000003 217.27000000000004 309.35 217.27000000000004 C 293.21 217.27 247.85 243.54 236.94 250 z" stroke-linecap="round" />
</g>
</g>
</g>
<g transform="matrix(1.9211538461538467 0 0 1.9211538461538467 646.6340546807872 676.5073793931397)" id="text-logo"  >
<g style=""  paint-order="stroke"   >
		<g transform="matrix(1 0 0 1 0 0)" id="text-logo-path-0"  >
<path style="stroke: none; stroke-width: 0; stroke-dasharray: none; stroke-linecap: butt; stroke-dashoffset: 0; stroke-linejoin: miter; stroke-miterlimit: 4; fill: rgb(255,255,255); fill-rule: nonzero; opacity: 1;"  paint-order="stroke"  transform=" translate(-266.10499999999996, 28.975)" d="M 16.41 0 L 6.08 0 L 6.08 -57.95 L 16.82 -57.95 L 47.42 -15.72 L 47.42 -57.95 L 57.75 -57.95 L 57.75 0 L 47.01 0 L 16.41 -43.12 L 16.41 0 Z M 92.73 -57.95 L 132.41 -57.95 L 132.41 -48.71 L 103.39 -48.71 L 103.39 -34.12 L 131.03 -34.12 L 131.03 -24.52 L 103.27 -24.52 L 103.27 -9.32 L 132.98 -9.32 L 132.98 0 L 92.73 0 L 92.73 -57.95 Z M 160.67 0 L 183.48 -28.98 L 160.67 -57.95 L 174.24 -57.95 L 190.25 -36.8 L 206.26 -57.95 L 219.84 -57.95 L 197.06 -28.98 L 219.84 0 L 206.26 0 L 190.25 -21.16 L 174.24 0 L 160.67 0 Z M 260.17 0 L 249.43 0 L 249.43 -57.95 L 275.37 -57.95 Q 293.12 -57.95 293.12 -41.62 L 293.12 -41.62 Q 293.12 -23.91 268.84 -20.18 L 268.84 -20.18 L 267.3 -29.75 Q 281.89 -32.38 281.89 -41.3 L 281.89 -41.3 Q 281.89 -48.51 274.68 -48.51 L 274.68 -48.51 L 260.17 -48.51 L 260.17 0 Z M 332.15 -29.14 L 332.15 -29.14 Q 332.15 -8.92 350.11 -8.92 L 350.11 -8.92 Q 367.62 -8.92 367.62 -29.14 L 367.62 -29.14 Q 367.62 -49.04 350.11 -49.04 L 350.11 -49.04 Q 332.15 -49.04 332.15 -29.14 Z M 321.01 -28.9 L 321.01 -28.9 Q 321.01 -58.36 350.11 -58.36 L 350.11 -58.36 Q 378.76 -58.36 378.76 -28.9 L 378.76 -28.9 Q 378.76 0.41 350.11 0.41 L 350.11 0.41 Q 322.31 0.41 321.01 -28.9 Z M 422.66 -0.08 L 411.72 -0.08 L 411.72 -57.95 L 438.06 -57.95 Q 455.81 -57.95 455.81 -42.43 L 455.81 -42.43 Q 455.81 -31.94 441.99 -25.05 L 441.99 -25.05 L 460.35 0 L 446.81 0 L 429.18 -25.25 L 429.18 -30.15 Q 444.58 -32.79 444.58 -42.11 L 444.58 -42.11 Q 444.58 -48.51 437.37 -48.51 L 437.37 -48.51 L 422.66 -48.51 L 422.66 -0.08 Z M 482.16 -57.95 L 526.13 -57.95 L 526.13 -48.63 L 509.52 -48.63 L 509.52 0 L 498.78 0 L 498.78 -48.63 L 482.16 -48.63 L 482.16 -57.95 Z" stroke-linecap="round" />
</g>
</g>
</g>
</svg>